# xmcd CD database file
#
# Track frame offsets:
#	150
#	46504
#	93064
#	131914
#	168764
#	229779
#	256717
#
# Disc length: 3895 seconds
#
# Revision: 0
# Processed by: cddbd v1.5.2PL0 Copyright (c) Steve Scherf et al.
# Submitted via: CDex 1.70beta2
#
DISCID=460f3507
DTITLE=Roberto Magris Quintet - Mating Call
DYEAR=2010
DGENRE=Jazz
TTITLE0=Optional Man
TTITLE1=Hill of Illusions
TTITLE2=Lament
TTITLE3=Theme for Earnie
TTITLE4=Mating Call
TTITLE5=Europlane Blues
TTITLE6=Lonely Town
EXTD=YEAR: 2010
EXTT0=
EXTT1=
EXTT2=
EXTT3=
EXTT4=
EXTT5=
EXTT6=
PLAYORDER=
